<svg width="41" height="41" viewBox="0 0 41 41" fill="none" xmlns="http://www.w3.org/2000/svg">
<path d="M31.6708 40.13H9.06519C6.93713 40.13 5.20637 38.4904 5.20637 36.4757L2.00443 22.2341C0.794586 21.6659 0 20.5067 0 19.2125C0 17.3209 1.62404 15.7837 3.61931 15.7837H36.6792C38.6745 15.7837 40.2985 17.3209 40.2985 19.2125C40.2985 20.3192 39.7346 21.3326 38.7917 21.9705L35.5032 36.7073C35.5296 38.4904 33.7988 40.13 31.6708 40.13ZM3.61931 18.0323C2.93321 18.0323 2.3739 18.5621 2.3739 19.2121C2.3739 19.7246 2.76485 20.1784 3.32592 20.3132C3.76337 20.4187 4.09867 20.7523 4.1913 21.1711L7.55385 36.2445C7.58027 37.2515 8.2463 37.8811 9.06519 37.8811H31.6708C32.4896 37.8811 33.156 37.2515 33.156 36.4757L36.576 21.0306C36.6503 20.6909 36.8866 20.404 37.2128 20.2518C37.6516 20.05 37.9253 19.6486 37.9253 19.2125C37.9253 18.5625 37.366 18.0326 36.6795 18.0326L3.61931 18.0323Z" fill="black"/>
<path d="M12.1128 33.537C12.1128 33.9721 11.737 34.3281 11.2777 34.3281H11.0477C10.5885 34.3281 10.2126 33.9721 10.2126 33.537V24.2767C10.2126 23.8416 10.5885 23.4856 11.0477 23.4856H11.2777C11.737 23.4856 12.1128 23.8416 12.1128 24.2767V33.537Z" fill="black"/>
<path d="M18.2269 33.537C18.2269 33.9721 17.8511 34.3281 17.3919 34.3281H17.1619C16.7026 34.3281 16.3264 33.9721 16.3264 33.537V24.2767C16.3264 23.8416 16.7022 23.4856 17.1619 23.4856H17.3919C17.8511 23.4856 18.2269 23.8416 18.2269 24.2767V33.537Z" fill="black"/>
<path d="M24.3419 33.537C24.3419 33.9721 23.9661 34.3281 23.5068 34.3281H23.2765C22.8172 34.3281 22.4414 33.9721 22.4414 33.537V24.2767C22.4414 23.8416 22.8172 23.4856 23.2765 23.4856H23.5068C23.9661 23.4856 24.3419 23.8416 24.3419 24.2767V33.537Z" fill="black"/>
<path d="M30.4565 33.537C30.4565 33.9721 30.0807 34.3281 29.6215 34.3281H29.3911C28.9318 34.3281 28.5557 33.9721 28.5557 33.537V24.2767C28.5557 23.8416 28.9318 23.4856 29.3911 23.4856H29.6211C30.0804 23.4856 30.4562 23.8416 30.4562 24.2767L30.4565 33.537Z" fill="black"/>
<path d="M8.90906 11.7642C9.70153 6.53596 14.4352 2.51393 20.1727 2.51393C25.9106 2.51393 30.6447 6.53629 31.4371 11.7642C31.5527 13.5493 33.9801 13.2637 33.9801 11.7642C33.1721 5.21497 27.3036 0.129883 20.1731 0.129883C13.043 0.129883 7.17407 5.21497 6.36646 11.7642C6.3661 13.621 8.94006 13.6924 8.90906 11.7642Z" fill="black"/>
</svg>
