<svg width="41" height="41" viewBox="0 0 41 41" fill="none" xmlns="http://www.w3.org/2000/svg">
<path d="M20.1493 36.3799C16.9114 36.3799 13.7462 35.4268 11.054 33.6413C8.36172 31.8557 6.26337 29.3178 5.02427 26.3485C3.78517 23.3792 3.46096 20.1119 4.09265 16.9597C4.72434 13.8075 6.28355 10.912 8.57312 8.6394C10.8627 6.3668 13.7798 4.81914 16.9555 4.19213C20.1312 3.56512 23.4229 3.88692 26.4144 5.11685C29.4058 6.34677 31.9627 8.42957 33.7616 11.1019C35.5605 13.7742 36.5206 16.9159 36.5206 20.1299C36.5206 24.4397 34.7958 28.5729 31.7256 31.6204C28.6554 34.6678 24.4913 36.3799 20.1493 36.3799ZM20.1493 6.37989C17.4096 6.37989 14.7313 7.18631 12.4533 8.69718C10.1752 10.2081 8.39968 12.3555 7.35121 14.868C6.30274 17.3805 6.02841 20.1451 6.56291 22.8124C7.09742 25.4796 8.41675 27.9296 10.3541 29.8526C12.2914 31.7756 14.7597 33.0851 17.4468 33.6157C20.134 34.1462 22.9193 33.8739 25.4505 32.8332C27.9817 31.7925 30.1452 30.0302 31.6674 27.769C33.1895 25.5078 34.002 22.8494 34.002 20.1299C34.002 16.4832 32.5425 12.9858 29.9446 10.4072C27.3468 7.82855 23.8233 6.37989 20.1493 6.37989Z" fill="black"/>
<path d="M20.1494 21.3799C18.9041 21.3799 17.6867 21.0133 16.6512 20.3266C15.6157 19.6398 14.8087 18.6637 14.3321 17.5217C13.8555 16.3796 13.7308 15.123 13.9738 13.9106C14.2167 12.6982 14.8164 11.5845 15.697 10.7105C16.5776 9.83639 17.6996 9.24114 18.921 8.99998C20.1424 8.75882 21.4085 8.88259 22.559 9.35564C23.7096 9.82869 24.693 10.6298 25.3849 11.6576C26.0768 12.6854 26.4461 13.8938 26.4461 15.1299C26.4461 16.7875 25.7827 18.3772 24.6018 19.5493C23.421 20.7214 21.8194 21.3799 20.1494 21.3799ZM20.1494 11.3799C19.4022 11.3799 18.6718 11.5998 18.0505 12.0119C17.4292 12.4239 16.945 13.0096 16.659 13.6948C16.3731 14.38 16.2983 15.134 16.444 15.8615C16.5898 16.5889 16.9496 17.2571 17.478 17.7815C18.0063 18.306 18.6795 18.6631 19.4124 18.8078C20.1452 18.9525 20.9049 18.8783 21.5952 18.5944C22.2855 18.3106 22.8756 17.83 23.2907 17.2133C23.7058 16.5966 23.9274 15.8716 23.9274 15.1299C23.9274 14.1353 23.5294 13.1815 22.8209 12.4782C22.1124 11.775 21.1514 11.3799 20.1494 11.3799Z" fill="black"/>
<path d="M32.176 30.1299C32.0012 30.1311 31.828 30.0961 31.6676 30.0273C31.5072 29.9584 31.3629 29.8571 31.2441 29.7299C29.9074 28.2827 28.2826 27.1266 26.4726 26.3348C24.6626 25.543 22.7067 25.1327 20.7287 25.1299H19.5701C15.883 25.122 12.3376 26.5387 9.68437 29.0799C9.43923 29.2807 9.12666 29.3821 8.80937 29.3636C8.49209 29.3452 8.19355 29.2084 7.97364 28.9807C7.75374 28.7529 7.62873 28.451 7.62369 28.1356C7.61866 27.8201 7.73397 27.5145 7.9465 27.2799C11.0644 24.2886 15.2338 22.6207 19.5701 22.6299H20.7287C23.0537 22.6351 25.3525 23.1175 27.4806 24.0468C29.6088 24.9761 31.5204 26.3322 33.0953 28.0299C33.2617 28.208 33.3722 28.4303 33.4133 28.6698C33.4545 28.9092 33.4244 29.1553 33.3269 29.3781C33.2294 29.6008 33.0686 29.7906 32.8642 29.9241C32.6598 30.0576 32.4207 30.1291 32.176 30.1299Z" fill="black"/>
</svg>
