<svg width="40" height="40" viewBox="0 0 40 40" fill="none" xmlns="http://www.w3.org/2000/svg">
<g id="&#208;&#155;&#208;&#184;&#209;&#134;&#208;&#190;" clip-path="url(#clip0_17_411)">
<g id="Layer 2">
<path id="Vector" d="M20 36.25C16.7861 36.25 13.6443 35.297 10.972 33.5114C8.29969 31.7258 6.21689 29.1879 4.98696 26.2186C3.75704 23.2493 3.43524 19.982 4.06225 16.8298C4.68926 13.6776 6.23692 10.7821 8.50952 8.50952C10.7821 6.23692 13.6776 4.68926 16.8298 4.06225C19.982 3.43524 23.2493 3.75704 26.2186 4.98696C29.1879 6.21689 31.7258 8.29969 33.5114 10.972C35.297 13.6443 36.25 16.7861 36.25 20C36.25 24.3098 34.538 28.443 31.4905 31.4905C28.443 34.538 24.3098 36.25 20 36.25ZM20 6.25001C17.2805 6.25001 14.6221 7.05643 12.3609 8.5673C10.0997 10.0782 8.33737 12.2256 7.29666 14.7381C6.25596 17.2506 5.98366 20.0153 6.51421 22.6825C7.04476 25.3497 8.35432 27.7998 10.2773 29.7227C12.2003 31.6457 14.6503 32.9553 17.3175 33.4858C19.9848 34.0164 22.7494 33.7441 25.2619 32.7033C27.7744 31.6626 29.9218 29.9003 31.4327 27.6391C32.9436 25.3779 33.75 22.7195 33.75 20C33.75 16.3533 32.3014 12.8559 29.7227 10.2773C27.1441 7.69866 23.6467 6.25001 20 6.25001Z" fill="#D31C29"/>
<path id="Vector_2" d="M20 21.25C18.7639 21.25 17.5555 20.8834 16.5277 20.1967C15.4999 19.5099 14.6988 18.5338 14.2258 17.3918C13.7527 16.2497 13.6289 14.9931 13.8701 13.7807C14.1113 12.5683 14.7065 11.4547 15.5806 10.5806C16.4547 9.70651 17.5683 9.11125 18.7807 8.87009C19.9931 8.62894 21.2497 8.75271 22.3918 9.22576C23.5338 9.6988 24.5099 10.4999 25.1967 11.5277C25.8834 12.5555 26.25 13.7639 26.25 15C26.25 16.6576 25.5915 18.2473 24.4194 19.4194C23.2473 20.5915 21.6576 21.25 20 21.25ZM20 11.25C19.2583 11.25 18.5333 11.4699 17.9166 11.882C17.2999 12.294 16.8193 12.8797 16.5355 13.5649C16.2516 14.2502 16.1774 15.0042 16.3221 15.7316C16.4668 16.459 16.8239 17.1272 17.3484 17.6517C17.8728 18.1761 18.541 18.5333 19.2684 18.6779C19.9958 18.8226 20.7498 18.7484 21.4351 18.4646C22.1203 18.1807 22.706 17.7001 23.118 17.0834C23.5301 16.4667 23.75 15.7417 23.75 15C23.75 14.0054 23.3549 13.0516 22.6517 12.3484C21.9484 11.6451 20.9946 11.25 20 11.25Z" fill="#D31C29"/>
<path id="Vector_3" d="M31.9375 30C31.764 30.0012 31.5922 29.9663 31.4329 29.8974C31.2737 29.8285 31.1305 29.7273 31.0125 29.6C29.6857 28.1528 28.073 26.9967 26.2764 26.2049C24.4798 25.4131 22.5384 25.0028 20.575 25H19.425C15.7653 24.9921 12.2461 26.4088 9.61251 28.95C9.36918 29.1508 9.05893 29.2522 8.744 29.2338C8.42906 29.2154 8.13273 29.0785 7.91446 28.8508C7.69618 28.623 7.57209 28.3211 7.5671 28.0057C7.5621 27.6903 7.67656 27.3846 7.88751 27.15C10.9824 24.1587 15.1208 22.4908 19.425 22.5H20.575C22.8828 22.5053 25.1646 22.9877 27.277 23.917C29.3894 24.8462 31.2868 26.2023 32.85 27.9C33.0152 28.0781 33.1249 28.3005 33.1657 28.5399C33.2065 28.7793 33.1767 29.0254 33.0799 29.2482C32.9832 29.471 32.8236 29.6607 32.6207 29.7942C32.4178 29.9277 32.1804 29.9993 31.9375 30Z" fill="#D31C29"/>
</g>
</g>
<defs>
<clipPath id="clip0_17_411">
<rect width="40" height="40" fill="white"/>
</clipPath>
</defs>
</svg>
